<svg width="55" height="55" viewBox="0 0 55 55" fill="none" xmlns="http://www.w3.org/2000/svg">
<path d="M30.3421 28.4357C29.7021 26.7905 29.0221 25.159 28.27 23.5613C19.4521 26.7169 9.88969 28.182 0 27.632C0.03575 35.1072 3.0525 41.8715 7.92206 46.807C12.9759 37.886 21.0767 31.504 30.3421 28.4357Z" fill="black"/>
<path d="M30.4721 17.8186C36.2794 15.3388 41.7533 12.0024 46.7754 7.90006C41.8117 3.01881 35.0061 0 27.4952 0C24.4434 0 21.516 0.519063 18.7722 1.43688C23.4183 6.50581 27.3474 12.0003 30.4721 17.8186Z" fill="black"/>
<path d="M32.5304 21.8982C33.3458 23.6486 34.0746 25.4279 34.7593 27.2202C41.4672 25.8162 48.4227 26.1518 54.9642 28.195C54.9732 27.9634 55 27.7351 55 27.5C55 21.4754 53.0392 15.9184 49.7516 11.3864C44.5466 15.6523 38.764 19.2108 32.5304 21.8982Z" fill="black"/>
<path d="M36.2835 31.5844C38.3914 38.2326 39.5869 45.0966 39.9403 52.0004C47.344 48.2336 52.8158 41.2335 54.4713 32.8467C48.5616 30.8392 42.3307 30.4164 36.2835 31.5844Z" fill="black"/>
<path d="M26.1662 19.4638C22.9838 13.6606 18.9984 8.26439 14.3137 3.36389C10.6462 5.37299 7.48515 8.19205 5.07103 11.6066C2.65692 15.0212 1.05333 18.9414 0.382248 23.069C9.2565 23.5455 17.9795 22.308 26.1662 19.4638Z" fill="black"/>
<path d="M31.8725 32.7545C31.0131 33.0364 30.1537 33.3238 29.3102 33.673C21.5827 36.8726 15.3519 42.537 11.4716 49.819C15.9878 53.0667 21.5091 55 27.4952 55C30.1829 54.9996 32.8561 54.6044 35.4289 53.8271C35.2076 46.5788 34.0306 39.4975 31.8725 32.7545Z" fill="black"/>
</svg>
