<svg width="55" height="55" viewBox="0 0 55 55" fill="none" xmlns="http://www.w3.org/2000/svg">
<path fill-rule="evenodd" clip-rule="evenodd" d="M27.4989 0C12.312 0 0 12.6231 0 28.1986C0 40.6543 7.87875 51.2226 18.8077 54.9509C20.1827 55.2106 20.6857 54.34 20.6857 53.5934C20.6857 52.9228 20.6616 51.15 20.6468 48.7979C12.9972 50.5017 11.3827 45.0181 11.3827 45.0181C10.1338 41.7602 8.33135 40.8931 8.33135 40.8931C5.83343 39.1436 8.52039 39.1787 8.52039 39.1787C11.2784 39.3776 12.7302 42.0844 12.7302 42.0844C15.1857 46.3943 19.1675 45.1503 20.735 44.4272C20.9837 42.6051 21.6952 41.3624 22.4812 40.6579C16.374 39.9452 9.95499 37.5275 9.95499 26.723C9.95499 23.6453 11.0252 21.1282 12.7852 19.1564C12.5022 18.4425 11.5592 15.5767 13.0545 11.6939C13.0545 11.6939 15.3633 10.9368 20.617 14.5844C22.8112 13.9595 25.1625 13.647 27.5011 13.6353C29.8375 13.647 32.1899 13.9595 34.3876 14.5844C39.6355 10.9368 41.941 11.6939 41.941 11.6939C43.442 15.5767 42.4978 18.4425 42.2148 19.1564C43.9771 21.1282 45.0416 23.6441 45.0416 26.723C45.0416 37.5545 38.6123 39.9382 32.4867 40.6368C33.4721 41.5075 34.3533 43.2265 34.3533 45.8583C34.3533 49.6264 34.3188 52.6677 34.3188 53.5934C34.3188 54.347 34.8139 55.2247 36.2095 54.9474C47.1281 51.212 55 40.6508 55 28.1986C55 12.6231 42.6869 0 27.4989 0Z" fill="black"/>
</svg>
