<svg width="28" height="30" viewBox="0 0 28 30" fill="none" xmlns="http://www.w3.org/2000/svg">
<path d="M20.626 2.54993e-08C21.4813 -0.000105038 22.3046 0.324459 22.9298 0.908099C23.5549 1.49174 23.9352 2.29093 23.9937 3.14416L24.0012 3.37367V18.5664C23.8212 18.6864 23.6487 18.8274 23.4897 18.9865L18.3759 24.0987L17.0138 22.7336C16.4149 22.1332 15.6112 21.7811 14.7637 21.7481H18.3759C18.6743 21.7481 18.9605 21.6296 19.1715 21.4186C19.3824 21.2076 19.501 20.9214 19.501 20.623C19.501 20.3246 19.3824 20.0385 19.1715 19.8275C18.9605 19.6165 18.6743 19.498 18.3759 19.498H10.8695C10.5712 19.498 10.285 19.6165 10.074 19.8275C9.86302 20.0385 9.74449 20.3246 9.74449 20.623C9.74449 20.9214 9.86302 21.2076 10.074 21.4186C10.285 21.6296 10.5712 21.7481 10.8695 21.7481H14.4892C13.8342 21.7749 13.2012 21.9919 12.6674 22.3726C12.1337 22.7533 11.7224 23.2812 11.4838 23.8918C11.2451 24.5024 11.1895 25.1693 11.3236 25.811C11.4577 26.4527 11.7759 27.0415 12.2391 27.5054L14.7262 30H3.37517C2.51994 30.0001 1.69655 29.6755 1.07142 29.0919C0.446294 28.5083 0.0660365 27.7091 0.00750057 26.8558L2.54993e-08 26.6248V3.37517C-0.000105038 2.51994 0.324459 1.69655 0.908099 1.07142C1.49174 0.446294 2.29093 0.0660365 3.14416 0.00750057L3.37517 2.54993e-08H20.626ZM7.50037 8.62543C7.50037 8.22759 7.34233 7.84604 7.06101 7.56472C6.77969 7.2834 6.39814 7.12536 6.0003 7.12536C5.60245 7.12536 5.2209 7.2834 4.93959 7.56472C4.65827 7.84604 4.50022 8.22759 4.50022 8.62543C4.50022 9.02328 4.65827 9.40483 4.93959 9.68614C5.2209 9.96746 5.60245 10.1255 6.0003 10.1255C6.39814 10.1255 6.77969 9.96746 7.06101 9.68614C7.34233 9.40483 7.50037 9.02328 7.50037 8.62543ZM10.8695 7.49888C10.5712 7.49888 10.285 7.61741 10.074 7.8284C9.86302 8.03939 9.74449 8.32555 9.74449 8.62393C9.74449 8.92231 9.86302 9.20848 10.074 9.41947C10.285 9.63046 10.5712 9.74899 10.8695 9.74899H18.3759C18.6743 9.74899 18.9605 9.63046 19.1715 9.41947C19.3824 9.20848 19.501 8.92231 19.501 8.62393C19.501 8.32555 19.3824 8.03939 19.1715 7.8284C18.9605 7.61741 18.6743 7.49888 18.3759 7.49888H10.8695ZM9.74449 14.6242C9.74449 15.2453 10.2485 15.7493 10.8695 15.7493H18.3759C18.5237 15.7493 18.67 15.7202 18.8065 15.6636C18.943 15.6071 19.067 15.5242 19.1715 15.4198C19.2759 15.3153 19.3588 15.1913 19.4153 15.0548C19.4719 14.9183 19.501 14.772 19.501 14.6242C19.501 14.4765 19.4719 14.3302 19.4153 14.1937C19.3588 14.0572 19.2759 13.9332 19.1715 13.8287C19.067 13.7242 18.943 13.6414 18.8065 13.5848C18.67 13.5283 18.5237 13.4992 18.3759 13.4992H10.8695C10.5712 13.4992 10.285 13.6177 10.074 13.8287C9.86302 14.0397 9.74449 14.3258 9.74449 14.6242ZM7.50037 14.6242C7.50037 14.2264 7.34233 13.8448 7.06101 13.5635C6.77969 13.2822 6.39814 13.1242 6.0003 13.1242C5.60245 13.1242 5.2209 13.2822 4.93959 13.5635C4.65827 13.8448 4.50022 14.2264 4.50022 14.6242C4.50022 15.0221 4.65827 15.4036 4.93959 15.6849C5.2209 15.9663 5.60245 16.1243 6.0003 16.1243C6.39814 16.1243 6.77969 15.9663 7.06101 15.6849C7.34233 15.4036 7.50037 15.0221 7.50037 14.6242ZM7.50037 20.6215C7.50037 20.2237 7.34233 19.8421 7.06101 19.5608C6.77969 19.2795 6.39814 19.1215 6.0003 19.1215C5.60245 19.1215 5.2209 19.2795 4.93959 19.5608C4.65827 19.8421 4.50022 20.2237 4.50022 20.6215C4.50022 21.0194 4.65827 21.4009 4.93959 21.6822C5.2209 21.9636 5.60245 22.1216 6.0003 22.1216C6.39814 22.1216 6.77969 21.9636 7.06101 21.6822C7.34233 21.4009 7.50037 21.0194 7.50037 20.6215Z" fill="white"/>
<path d="M18.3759 27.2851L25.0812 20.5798C25.1842 20.4692 25.3084 20.3806 25.4464 20.3191C25.5844 20.2576 25.7334 20.2245 25.8845 20.2219C26.0356 20.2192 26.1856 20.247 26.3257 20.3036C26.4658 20.3601 26.593 20.4444 26.6999 20.5512C26.8067 20.658 26.8909 20.7853 26.9475 20.9254C27.0041 21.0655 27.0319 21.2155 27.0292 21.3666C27.0266 21.5176 26.9935 21.6666 26.932 21.8046C26.8705 21.9426 26.7818 22.0668 26.6713 22.1698L19.1709 29.6702C18.96 29.8809 18.674 29.9992 18.3759 29.9992C18.0778 29.9992 17.7918 29.8809 17.5809 29.6702L13.8307 25.9185C13.6319 25.7053 13.5237 25.4232 13.5289 25.1317C13.534 24.8402 13.6521 24.5621 13.8582 24.356C14.0644 24.1499 14.3425 24.0318 14.6339 24.0267C14.9254 24.0215 15.2075 24.1297 15.4207 24.3284L18.3759 27.2836V27.2851Z" fill="white"/>
</svg>
