<svg width="55" height="55" viewBox="0 0 55 55" fill="none" xmlns="http://www.w3.org/2000/svg">
<path d="M27.5 0C12.3114 0 0 12.3114 0 27.5C0 42.6869 12.3114 55 27.5 55C42.6886 55 55 42.6869 55 27.5C55 12.3114 42.6886 0 27.5 0Z" fill="black"/>
<path d="M37.9105 13.6296H17.0895C15.1302 13.6296 13.6194 15.1404 13.6194 17.0998V37.919C13.6194 39.8784 15.1302 41.3891 17.0895 41.3891H37.9087C39.8681 41.3891 41.3789 39.8784 41.3789 37.919V17.0998C41.3866 16.6421 41.3021 16.1875 41.1305 15.7632C40.959 15.3388 40.7038 14.9533 40.3802 14.6295C40.0566 14.3058 39.6712 14.0504 39.2469 13.8786C38.8226 13.7069 38.3681 13.6222 37.9105 13.6296ZM27.5206 22.0566C30.5989 22.0566 33.0945 24.4749 33.0945 27.4569C33.0945 30.439 30.5989 32.8573 27.5206 32.8573C24.4441 32.8573 21.9484 30.4373 21.9484 27.4569C21.9484 24.4732 24.4441 22.0566 27.5206 22.0566ZM37.9105 37.051C37.9105 37.6594 37.6509 37.919 37.0425 37.919H17.9575C17.3508 37.919 17.0895 37.6594 17.0895 37.051V24.9063L19.2517 25.3773C19.0143 26.1484 18.8938 26.9508 18.8942 27.7577C18.8942 32.3709 22.758 36.116 27.5189 36.116C32.2833 36.116 36.1453 32.3726 36.1453 27.7577C36.1457 26.9508 36.0252 26.1484 35.7878 25.3773L37.9087 24.9063V37.051H37.9105ZM37.9105 21.4362C37.9105 21.6664 37.819 21.8871 37.6562 22.0499C37.4935 22.2127 37.2727 22.3041 37.0425 22.3041H33.5723C33.3421 22.3041 33.1214 22.2127 32.9586 22.0499C32.7958 21.8871 32.7044 21.6664 32.7044 21.4362V17.966C32.7044 17.4865 33.0928 17.098 33.5723 17.098H37.0425C37.522 17.098 37.9105 17.4865 37.9105 17.966V21.4362Z" fill="white"/>
</svg>
