<svg width="55" height="55" viewBox="0 0 55 55" fill="none" xmlns="http://www.w3.org/2000/svg">
<path d="M30.2398 24.3267H30.2819V24.2605L30.2398 24.3267ZM30.2398 24.3267H30.2819V24.2605L30.2398 24.3267ZM30.2398 24.3267H30.2819V24.2605L30.2398 24.3267ZM30.2398 24.3267H30.2819V24.2605L30.2398 24.3267ZM30.2398 24.3267H30.2819V24.2605L30.2398 24.3267ZM30.2398 24.3267H30.2819V24.2605L30.2398 24.3267ZM30.2398 24.3267H30.2819V24.2605L30.2398 24.3267ZM30.2398 24.3267H30.2819V24.2605L30.2398 24.3267ZM30.2398 24.3267H30.2819V24.2605L30.2398 24.3267ZM30.2398 24.3267H30.2819V24.2605L30.2398 24.3267ZM30.2398 24.3267H30.2819V24.2605L30.2398 24.3267ZM30.2398 24.3267H30.2819V24.2605L30.2398 24.3267ZM30.2398 24.3267H30.2819V24.2605L30.2398 24.3267ZM30.2398 24.3267H30.2819V24.2605L30.2398 24.3267ZM30.2398 24.3267H30.2819V24.2605L30.2398 24.3267ZM30.2398 24.3267H30.2819V24.2605L30.2398 24.3267ZM27.5 0C22.061 0 16.7442 1.61285 12.2218 4.63458C7.69948 7.65632 4.17473 11.9512 2.09332 16.9762C0.011915 22.0012 -0.532676 27.5305 0.528417 32.865C1.58951 38.1995 4.20863 43.0995 8.05457 46.9454C11.9005 50.7914 16.8005 53.4105 22.135 54.4716C27.4695 55.5327 32.9988 54.9881 38.0238 52.9067C43.0488 50.8253 47.3437 47.3005 50.3654 42.7782C53.3872 38.2558 55 32.939 55 27.5C54.992 20.209 52.0922 13.2189 46.9366 8.06336C41.7811 2.90784 34.791 0.00796919 27.5 0ZM20.6235 39.8801C20.6219 40.002 20.5724 40.1184 20.4856 40.2041C20.3988 40.2897 20.2818 40.3378 20.1599 40.3377H14.861C14.7396 40.3377 14.6232 40.2895 14.5374 40.2037C14.4516 40.1179 14.4033 40.0015 14.4033 39.8801V22.0747C14.4025 22.0141 14.4138 21.9539 14.4364 21.8977C14.4591 21.8415 14.4927 21.7903 14.5352 21.7472C14.5778 21.704 14.6285 21.6698 14.6844 21.6464C14.7404 21.623 14.8004 21.611 14.861 21.611H20.1599C20.2207 21.611 20.281 21.623 20.3373 21.6463C20.3935 21.6696 20.4447 21.7038 20.4877 21.7468C20.5308 21.7899 20.5649 21.841 20.5882 21.8972C20.6115 21.9535 20.6235 22.0138 20.6235 22.0747V39.8801ZM17.3237 19.2325C16.6652 19.2325 16.0214 19.0372 15.4738 18.6714C14.9262 18.3055 14.4994 17.7854 14.2473 17.177C13.9953 16.5685 13.9294 15.899 14.0579 15.253C14.1863 14.6071 14.5035 14.0138 14.9692 13.5481C15.4349 13.0824 16.0282 12.7653 16.6741 12.6368C17.3201 12.5083 17.9896 12.5742 18.598 12.8263C19.2065 13.0783 19.7265 13.5051 20.0924 14.0527C20.4583 14.6003 20.6536 15.2441 20.6536 15.9027C20.6544 16.3402 20.5688 16.7735 20.4018 17.1779C20.2347 17.5822 19.9895 17.9496 19.6801 18.259C19.3707 18.5684 19.0033 18.8136 18.599 18.9807C18.1946 19.1477 17.7613 19.2333 17.3237 19.2325ZM43.0474 39.8801C43.0458 40.002 42.9963 40.1184 42.9095 40.2041C42.8227 40.2897 42.7057 40.3378 42.5838 40.3377H37.2849C37.2248 40.3377 37.1653 40.3259 37.1097 40.3029C37.0542 40.2799 37.0038 40.2462 36.9613 40.2037C36.9188 40.1612 36.8851 40.1108 36.8621 40.0552C36.8391 39.9997 36.8272 39.9402 36.8272 39.8801V30.312C36.8272 27.795 35.93 26.097 33.678 26.097C32.9763 26.1009 32.2929 26.3218 31.7216 26.7292C31.1503 27.1367 30.7189 27.7109 30.4867 28.3731C30.3279 28.8625 30.2586 29.3765 30.2819 29.8905V39.8801C30.2819 40.0031 30.2331 40.121 30.1461 40.208C30.0592 40.2949 29.9412 40.3438 29.8183 40.3438H24.5194C24.4588 40.3438 24.3988 40.3317 24.3429 40.3084C24.2869 40.285 24.2362 40.2507 24.1936 40.2076C24.1511 40.1645 24.1175 40.1133 24.0948 40.0571C24.0722 40.0009 24.061 39.9407 24.0618 39.8801C24.0618 37.3391 24.128 25.0011 24.0618 22.0987C24.061 22.0381 24.0722 21.978 24.0948 21.9218C24.1175 21.8656 24.1511 21.8144 24.1936 21.7713C24.2362 21.7281 24.2869 21.6939 24.3429 21.6705C24.3988 21.6471 24.4588 21.6351 24.5194 21.6351H29.8062C29.8673 21.6343 29.928 21.6457 29.9846 21.6687C30.0412 21.6918 30.0927 21.7259 30.1359 21.7691C30.1791 21.8123 30.2132 21.8637 30.2362 21.9204C30.2593 21.977 30.2707 22.0376 30.2699 22.0987V24.2845C30.8331 23.3068 31.6534 22.502 32.6416 21.9574C33.6299 21.4129 34.7484 21.1494 35.8759 21.1955C39.9644 21.1955 43.0354 23.8691 43.0354 29.6256L43.0474 39.8801ZM30.2819 24.3448V24.2785L30.2398 24.3448H30.2819ZM30.2398 24.3448H30.2819V24.2785L30.2398 24.3448ZM30.2398 24.3448H30.2819V24.2785L30.2398 24.3448ZM30.2398 24.3448H30.2819V24.2785L30.2398 24.3448ZM30.2398 24.3448H30.2819V24.2785L30.2398 24.3448ZM30.2398 24.3448H30.2819V24.2785L30.2398 24.3448ZM30.2398 24.3448H30.2819V24.2785L30.2398 24.3448ZM30.2398 24.3448H30.2819V24.2785L30.2398 24.3448ZM30.2398 24.3448H30.2819V24.2785L30.2398 24.3448ZM30.2398 24.3448H30.2819V24.2785L30.2398 24.3448ZM30.2398 24.3448H30.2819V24.2785L30.2398 24.3448ZM30.2398 24.3448H30.2819V24.2785L30.2398 24.3448ZM30.2398 24.3448H30.2819V24.2785L30.2398 24.3448ZM30.2398 24.3448H30.2819V24.2785L30.2398 24.3448ZM30.2398 24.3448H30.2819V24.2785L30.2398 24.3448Z" fill="black"/>
</svg>
