<svg width="56" height="56" viewBox="0 0 56 56" fill="none" xmlns="http://www.w3.org/2000/svg">
<circle cx="28" cy="28" r="28" fill="white"/>
<path d="M25.97 35.28H18.11L16.85 39H11.48L19.1 17.94H25.04L32.66 39H27.23L25.97 35.28ZM24.65 31.32L22.04 23.61L19.46 31.32H24.65ZM43.3791 26.52H40.6191V39H35.4891V26.52H33.6291V22.26H35.4891V21.78C35.4891 19.72 36.0791 18.16 37.2591 17.1C38.4391 16.02 40.1691 15.48 42.4491 15.48C42.8291 15.48 43.1091 15.49 43.2891 15.51V19.86C42.3091 19.8 41.6191 19.94 41.2191 20.28C40.8191 20.62 40.6191 21.23 40.6191 22.11V22.26H43.3791V26.52Z" fill="black"/>
</svg>
