<svg width="55" height="55" viewBox="0 0 55 55" fill="none" xmlns="http://www.w3.org/2000/svg">
<path d="M27.5 0C12.3114 0 0 12.3114 0 27.5C0 42.6869 12.3114 55 27.5 55C42.6886 55 55 42.6869 55 27.5C55 12.3114 42.6886 0 27.5 0Z" fill="black"/>
<path d="M31.326 15.2728C28.5932 16.268 26.8658 18.8323 27.0618 21.6391L27.1271 22.7219L26.0339 22.5895C22.055 22.0808 18.578 20.3569 15.6252 17.4608L14.1814 16.0239L13.8119 17.0844C13.0247 19.4494 13.5283 21.9484 15.168 23.6294C16.0429 24.5575 15.8452 24.6898 14.3379 24.1381C13.8136 23.9611 13.353 23.8288 13.31 23.8958C13.1571 24.0505 13.6813 26.0614 14.0972 26.8589C14.6661 27.9658 15.8246 29.0469 17.093 29.6897L18.1655 30.1984L16.8954 30.2173C15.6716 30.2173 15.6269 30.2397 15.7593 30.7055C16.1958 32.1423 17.9232 33.6686 19.8482 34.332L21.2043 34.7961L20.0235 35.5042C18.2385 36.5337 16.2226 37.0959 14.1625 37.1388C13.1777 37.1611 12.3682 37.2488 12.3682 37.3158C12.3682 37.5358 15.0374 38.7733 16.5877 39.2614C21.2455 40.6983 26.7782 40.0778 30.9324 37.6252C33.8852 35.8789 36.8363 32.407 38.2147 29.0452C38.9589 27.2559 39.7014 23.9834 39.7014 22.4142C39.7014 21.3967 39.7668 21.2644 40.9905 20.0492C41.7124 19.3411 42.3896 18.5677 42.5219 18.3477C42.7419 17.9266 42.7178 17.9266 41.6041 18.303C39.7461 18.9664 39.4832 18.8788 40.4027 17.8836C41.0799 17.1755 41.8894 15.8933 41.8894 15.5186C41.8894 15.4533 41.5611 15.5633 41.1899 15.7609C40.7963 15.9827 39.9214 16.3144 39.2649 16.512L38.0841 16.8884L37.0133 16.1563C36.4221 15.7592 35.5936 15.3158 35.1554 15.1834C34.0382 14.8741 32.3332 14.9188 31.326 15.2728Z" fill="white"/>
</svg>
